<svg fill="currentColor"
  xmlns="http://www.w3.org/2000/svg">
  <symbol id="trpc" viewBox="0 0 358 361">
    <g clip-path="url(#a)">
      <path fill-rule="evenodd" clip-rule="evenodd" d="m177.392 0 71.077 41.008v22.548l86.031 49.682v84.986l23.077 13.322v82.062l-71.031 41.007-31.535-18.237-76.673 44.268-76.214-44.012-31.093 17.981L0 293.538v-81.992l22.177-12.803v-85.505l84.184-48.6.047-.002V41.008L177.392 0Zm71.077 84.879v38.144l-71.031 41.008-71.03-41.008V85.936l-.047.002L40.638 123.9v64.184l30.393-17.546 71.03 41.008v81.992l-21.489 12.427 57.766 33.358 58.226-33.611-21.049-12.174v-81.992l71.031-41.008 29.492 17.027V123.9l-67.569-39.021Zm-14.492 198.09v-50.054l43.338 25.016v50.054l-43.338-25.016Zm105.138-50.123-43.338 25.016v50.123l43.338-25.085v-50.054ZM18.462 282.9v-50.054L61.8 257.862v50.053L18.462 282.9ZM123.6 232.846l-43.339 25.016v50.053L123.6 282.9v-50.054Zm119.608-15.923 43.338-25.015 43.338 25.015-43.338 25.039-43.338-25.039ZM71.031 191.838l-43.339 25.085 43.34 24.969 43.337-24.969-43.338-25.085Zm53.838-79.476V62.308l43.292 25.038v50.031l-43.292-25.015Zm105.092-50.054-43.292 25.038v50.008l43.292-24.992V62.308ZM134.1 46.338l43.292-25.015 43.339 25.015-43.339 25.016L134.1 46.338Z" fill="currentColor"/>
    </g>
    <defs>
      <clipPath id="a">
        <path fill="currentColor" d="M0 0h358v361H0z"/>
      </clipPath>
    </defs>
  </symbol>

  <symbol id="list.bullet.clipboard" viewBox="0 0 80 115">
    <path d="M20.594 51.719c1.093 0 2.031-.39 2.812-1.172.782-.781 1.172-1.719 1.172-2.813 0-1.125-.39-2.062-1.172-2.812-.781-.781-1.718-1.172-2.812-1.172-1.063 0-2 .39-2.813 1.172-.781.781-1.172 1.719-1.172 2.812 0 1.063.391 2 1.172 2.813.813.781 1.75 1.172 2.813 1.172Zm0 16.593c1.093 0 2.031-.374 2.812-1.124.782-.782 1.172-1.735 1.172-2.86 0-1.094-.39-2.016-1.172-2.766-.781-.78-1.718-1.171-2.812-1.171-1.094 0-2.032.39-2.813 1.172-.781.78-1.172 1.703-1.172 2.765 0 1.125.391 2.078 1.172 2.86.782.75 1.719 1.124 2.813 1.124Zm0 17.579c1.093 0 2.031-.391 2.812-1.172.782-.781 1.172-1.719 1.172-2.813 0-1.125-.39-2.062-1.172-2.812-.781-.781-1.718-1.172-2.812-1.172-1.063 0-2 .39-2.813 1.172-.781.781-1.172 1.719-1.172 2.812 0 1.063.391 2 1.172 2.813.813.781 1.75 1.172 2.813 1.172Zm12.515-35.25h28.125c.782 0 1.453-.282 2.016-.844.594-.594.89-1.281.89-2.063 0-.812-.296-1.5-.89-2.062-.563-.594-1.234-.89-2.016-.89H33.11c-.812 0-1.515.296-2.109.89-.563.562-.844 1.25-.844 2.062 0 .782.282 1.47.844 2.063a2.964 2.964 0 0 0 2.11.844Zm0 16.64h28.125c.813 0 1.5-.281 2.063-.844a2.964 2.964 0 0 0 .844-2.109c0-.781-.282-1.453-.844-2.016-.563-.562-1.25-.843-2.063-.843H33.11c-.843 0-1.547.281-2.109.843-.563.563-.844 1.235-.844 2.016 0 .813.282 1.516.844 2.11.563.562 1.266.843 2.11.843Zm0 17.531h28.125c.782 0 1.453-.28 2.016-.843.594-.594.89-1.281.89-2.063 0-.812-.28-1.5-.843-2.062-.563-.563-1.25-.844-2.063-.844H33.11c-.843 0-1.547.281-2.109.844-.563.562-.844 1.25-.844 2.062 0 .781.282 1.469.844 2.063a2.964 2.964 0 0 0 2.11.844ZM15.484 114.25h49.782c4.843 0 8.468-1.234 10.875-3.703 2.437-2.438 3.656-6.109 3.656-11.016V28.47c0-4.813-1.172-8.469-3.516-10.969-2.312-2.5-5.812-3.75-10.5-3.75h-1.125c.031.188.047.39.047.61V19.14c0 .875-.062 1.593-.187 2.156h1.125c2.187 0 3.828.656 4.921 1.969 1.126 1.312 1.688 3.078 1.688 5.297v70.874c0 2.344-.625 4.141-1.875 5.391-1.219 1.25-3.047 1.875-5.484 1.875H15.859c-2.437 0-4.28-.625-5.53-1.875-1.22-1.25-1.829-3.047-1.829-5.39V28.561c0-2.218.547-3.984 1.64-5.296 1.126-1.313 2.782-1.97 4.97-1.97h1.124c-.125-.562-.187-1.28-.187-2.155v-4.782c0-.218.015-.421.047-.609h-1.125c-4.688 0-8.203 1.25-10.547 3.75C2.109 20 .953 23.656.953 28.469V99.53c0 4.907 1.203 8.578 3.61 11.016 2.437 2.469 6.078 3.703 10.921 3.703Zm10.407-89.766h28.968c1.375 0 2.438-.406 3.188-1.218.781-.813 1.172-1.953 1.172-3.422v-4.922c0-1.469-.39-2.61-1.172-3.422-.75-.813-1.813-1.219-3.188-1.219h-4.312c-.156-2.656-1.219-4.922-3.188-6.797C45.422 1.61 43.094.672 40.375.672c-2.719 0-5.063.937-7.031 2.812-1.938 1.875-2.985 4.141-3.14 6.797H25.89c-1.375 0-2.453.406-3.235 1.219-.75.813-1.125 1.953-1.125 3.422v4.922c0 1.468.375 2.61 1.125 3.422.782.812 1.86 1.218 3.235 1.218Zm14.484-9.75c-1.125 0-2.094-.406-2.906-1.218-.782-.813-1.172-1.766-1.172-2.86 0-1.156.39-2.125 1.172-2.906.812-.813 1.781-1.219 2.906-1.219 1.125 0 2.078.407 2.86 1.219.812.781 1.218 1.75 1.218 2.906 0 1.094-.406 2.047-1.219 2.86-.78.812-1.734 1.218-2.859 1.218Z" fill="currentColor" />
  </symbol>

  <symbol id="openapi" viewBox="0 0 24 24">
    <path d="M21.039 0a2.959 2.959 0 0 0-2.65 4.274l-6.447 6.447a2.96 2.96 0 1 0 1.335 1.336l6.447-6.447A2.959 2.959 0 1 0 21.04 0zM10.628 2.745c-.072 0-.143.003-.214.004-.072.002-.143.002-.215.005a10.69 10.69 0 0 0-1.335.138l-.03.005-.185.033-.105.02a7.718 7.718 0 0 0-.289.062l-.032.008a10.69 10.69 0 0 0-2.55.95l-.155.089c-.063.034-.125.07-.187.105-.046.027-.093.051-.14.079H5.19l-.01.005-.036.02v.002l.111.184 3.15 5.23a4.168 4.168 0 0 1 .38-.202 4.294 4.294 0 0 1 1.628-.413c.071-.004.143-.008.214-.008zm.428.01v6.333c.325.034.647.103.96.209l4.66-4.66c-.173-.12-.348-.237-.528-.347l-.026-.015c-.056-.035-.112-.067-.168-.1l-.098-.056-.099-.055a12.735 12.735 0 0 0-.171-.092l-.027-.014a10.628 10.628 0 0 0-1.425-.617c-.69-.241-1.403-.41-2.128-.505l-.089-.012-.09-.01a6.56 6.56 0 0 0-.17-.019l-.049-.004-.204-.017a6.44 6.44 0 0 0-.255-.015c-.031-.003-.062-.003-.093-.004zM4.782 4.498a9.92 9.92 0 0 0-1.36 1.062l4.461 4.461.018.018c.049-.04.098-.078.149-.116l-.011-.018zm-1.67 1.36c-.05.05-.098.103-.147.154l-.149.155c-.33.357-.63.73-.902 1.118l-.039.056a10.588 10.588 0 0 0-.216.326 10.6 10.6 0 0 0-1.65 5.276l-.006.215-.003.214h6.317c0-.072.007-.143.01-.214.005-.072.006-.144.013-.215a4.287 4.287 0 0 1 .952-2.3c.045-.055.096-.106.144-.16.048-.052.093-.107.144-.158zm16.255 1.464-4.663 4.663c.106.312.175.634.21.959h6.332l-.004-.094a11.579 11.579 0 0 0-.032-.456l-.005-.052a13.044 13.044 0 0 0-.026-.241v-.009l-.033-.24v-.009a10.618 10.618 0 0 0-.327-1.493l-.003-.01a15.839 15.839 0 0 0-.07-.228l-.01-.03a14.111 14.111 0 0 0-.069-.204l-.02-.055a5.65 5.65 0 0 0-.153-.405 7.84 7.84 0 0 0-.093-.227 16.67 16.67 0 0 0-.063-.144l-.037-.081a13.776 13.776 0 0 0-.08-.171l-.024-.052-.096-.194-.014-.027a11.2 11.2 0 0 0-.112-.212l-.004-.008a10.615 10.615 0 0 0-.604-.98zm-4.43 6.05c0 .071-.006.142-.01.214-.003.072-.005.143-.012.214a4.29 4.29 0 0 1-.952 2.301c-.045.055-.096.107-.144.16-.048.053-.093.108-.144.159l4.467 4.467c.051-.051.099-.104.148-.155.05-.052.1-.103.148-.155.331-.358.633-.733.905-1.122l.032-.046.098-.144.085-.13.04-.063a10.597 10.597 0 0 0 1.647-5.272c.003-.071.004-.143.006-.214.001-.071.004-.143.004-.214zM.01 13.8l.004.093.01.179.005.076.017.206.005.046c.007.076.015.153.024.228l.003.022a9.605 9.605 0 0 0 .033.248c.072.505.182 1.005.327 1.497l.002.006c.022.077.047.154.071.23l.004.014.005.014a15.737 15.737 0 0 0 .153.439l.03.08.059.148a7.702 7.702 0 0 0 .093.228l.062.14.038.084.078.169.027.054a10.677 10.677 0 0 0 .225.441l.025.043 5.408-3.258.02-.012a4.314 4.314 0 0 1-.395-1.414h-.025zm.505 2.846-.206.058.002.005zm6.425-1.052-5.415 3.262c.083.139.17.273.259.406l.008.014.004.005.008.014h.001a.257.257 0 0 0 .022.032l.001.002v.001a10.634 10.634 0 0 0 .298.417l.006.008a9.963 9.963 0 0 0 .29.368l.033.04c.043.052.086.103.13.153l.057.065.112.127.064.069.029.031.083.09.035.035c.049.051.098.103.149.153L7.58 16.42a3.86 3.86 0 0 1-.285-.321 4.422 4.422 0 0 1-.356-.505zm6.416 1.111c-.05.04-.1.079-.15.116l.011.018 3.257 5.407c.151-.099.3-.2.446-.307.315-.232.62-.484.914-.756l-4.46-4.46zm-5.457.003-.015.015-4.46 4.46a8.966 8.966 0 0 0 .195.176c.022.02.043.04.065.058l.152.13a10.622 10.622 0 0 0 .215.174l.023.017.191.148.008.005c.268.2.547.389.834.564l.03.018.164.097.101.057a5.458 5.458 0 0 0 .27.148c.008.004.016.01.025.013.162.085.327.164.493.24l.158-.385 2.243-5.448.009-.02a4.328 4.328 0 0 1-.701-.467zm4.951.353c-.061.037-.124.07-.187.104a4.318 4.318 0 0 1-3.271.336c-.069-.02-.135-.047-.203-.071-.067-.024-.136-.044-.202-.072l-2.242 5.444-.088.213-.075.183v.001l.017.007a.137.137 0 0 0 .019.007l.005.003c.052.021.106.04.159.06.067.027.133.053.2.077l.102.04c.702.247 1.43.42 2.168.518l.087.012.09.01.172.019a7.173 7.173 0 0 0 .252.022c.023.001.048.001.071.003l.184.011.112.005a7.06 7.06 0 0 0 .358.007h.05a10.667 10.667 0 0 0 1.793-.15l.185-.034.105-.02.109-.023.18-.04.032-.008a10.684 10.684 0 0 0 2.55-.95c.052-.028.104-.06.156-.089.063-.034.125-.07.187-.105.043-.024.087-.047.13-.073h.001l.002-.002.002-.001.002-.001.007-.004.042-.025-.11-.183-.11-.184zm3.262 5.414-.042.025.042-.024zm-.05.029zm-.005.004h-.002z" fill="currentColor" />
  </symbol>

  <symbol id="graphql" viewBox="0 0 32 32">
    <path d="M18.734 3.667l6.578 3.802c1.089-1.146 2.901-1.193 4.047-0.104 0.193 0.188 0.365 0.401 0.5 0.635 0.786 1.37 0.313 3.12-1.063 3.906-0.229 0.13-0.479 0.234-0.745 0.297v7.599c1.531 0.365 2.474 1.896 2.109 3.427-0.063 0.271-0.172 0.531-0.307 0.771-0.792 1.365-2.536 1.833-3.906 1.042-0.26-0.146-0.5-0.344-0.698-0.568l-6.542 3.776c0.495 1.495-0.318 3.109-1.813 3.604-0.292 0.099-0.594 0.146-0.896 0.146-1.573 0-2.854-1.271-2.854-2.849 0-0.271 0.042-0.547 0.12-0.813l-6.583-3.797c-1.089 1.141-2.896 1.188-4.036 0.094-1.135-1.089-1.177-2.891-0.094-4.031 0.38-0.396 0.865-0.677 1.396-0.807v-7.599c-1.531-0.365-2.479-1.906-2.109-3.443 0.063-0.266 0.167-0.521 0.302-0.755 0.786-1.365 2.536-1.833 3.901-1.042 0.234 0.135 0.453 0.302 0.641 0.5l6.583-3.797c-0.448-1.51 0.417-3.099 1.922-3.542 0.26-0.083 0.536-0.12 0.813-0.12 1.573 0 2.854 1.271 2.854 2.844 0 0.281-0.042 0.557-0.12 0.823zM18.047 4.839c-0.026 0.026-0.047 0.052-0.078 0.078l8.615 14.917c0.036-0.010 0.078-0.021 0.109-0.031v-7.609c-1.526-0.375-2.453-1.922-2.073-3.448 0.005-0.031 0.016-0.068 0.021-0.099zM14.026 4.917l-0.078-0.078-6.594 3.802c0.438 1.51-0.438 3.089-1.948 3.526-0.036 0.010-0.068 0.016-0.104 0.026v7.609l0.115 0.031 8.615-14.917zM16.797 5.594c-0.521 0.146-1.073 0.146-1.589 0l-8.615 14.917c0.391 0.375 0.667 0.859 0.802 1.391h17.214c0.13-0.531 0.406-1.016 0.802-1.396zM18.109 27.229l6.552-3.786c-0.021-0.063-0.036-0.125-0.052-0.188h-17.219l-0.031 0.109 6.589 3.802c0.516-0.536 1.245-0.87 2.052-0.87 0.839 0 1.589 0.359 2.109 0.932z" fill="currentColor" />
  </symbol>

  <symbol id="network" viewBox="0 0 97 96">
    <path d="M7.938 28.281a62.522 62.522 0 0 0 12.984 10.5 62.242 62.242 0 0 0 15.375 6.657c5.469 1.5 11.094 2.25 16.875 2.25 6.844-.032 13.437-1.157 19.781-3.376a59.923 59.923 0 0 0 17.484-9.562l-2.671-5.25a53.944 53.944 0 0 1-16.125 9.281c-5.907 2.125-12.063 3.203-18.47 3.235-8.312.03-16.187-1.672-23.624-5.11-7.406-3.437-13.735-8.25-18.985-14.437L7.938 28.28ZM2.921 55.047c6.094 5.187 12.734 9.328 19.922 12.422 7.218 3.062 14.672 5.031 22.36 5.906a79.273 79.273 0 0 0 23.062-.75c7.656-1.375 15-3.906 22.03-7.594l-.14-6.422c-6.812 3.938-14 6.672-21.562 8.203a73.392 73.392 0 0 1-22.781.938c-7.594-.875-14.938-2.906-22.032-6.094-7.093-3.218-13.578-7.547-19.453-12.984l-1.406 6.375Zm23.25 32.203 6.703 1.547a66.706 66.706 0 0 1-3.61-11.625c-.843-3.969-1.296-8-1.359-12.094-.437-7.781.328-15.344 2.297-22.687a72.93 72.93 0 0 1 9.188-20.578c4.125-6.407 9.172-12.047 15.14-16.922l-6-2.344c-5.906 5.25-10.89 11.219-14.953 17.906a78.73 78.73 0 0 0-9.047 21.375c-1.937 7.563-2.703 15.344-2.297 23.344.063 3.75.422 7.469 1.078 11.156a71.152 71.152 0 0 0 2.86 10.922Zm30.89 4.64 5.297-2.343a74.642 74.642 0 0 1-10.078-20.063c-2.312-7.218-3.468-14.656-3.468-22.312 0-7.281 1.03-14.328 3.093-21.14a70.808 70.808 0 0 1 9.047-19.079l-5.531-1.969c-4 6.282-7.047 13-9.14 20.157a78.059 78.059 0 0 0-3.141 22.03c0 8.095 1.187 15.938 3.562 23.532a78.467 78.467 0 0 0 10.36 21.188Zm27.61-17.437 3.797-4.312c-5.25-3-9.797-6.766-13.64-11.297a52.387 52.387 0 0 1-8.907-15.14c-2.094-5.563-3.188-11.407-3.281-17.532a53.56 53.56 0 0 1 .797-9.75 47.486 47.486 0 0 1 2.624-9.328l-5.484-1.547a53.93 53.93 0 0 0-2.766 10.125 58.838 58.838 0 0 0-.843 10.547c.093 6.656 1.265 13.031 3.515 19.125a57.139 57.139 0 0 0 9.563 16.593c4.125 4.97 9 9.141 14.625 12.516ZM27.859 47.125c2 0 3.703-.719 5.11-2.156 1.437-1.438 2.156-3.172 2.156-5.203 0-2.032-.719-3.75-2.156-5.157-1.407-1.437-3.11-2.156-5.11-2.156-2.062 0-3.812.719-5.25 2.156-1.406 1.407-2.109 3.125-2.109 5.157 0 2.03.703 3.765 2.11 5.203 1.437 1.437 3.187 2.156 5.25 2.156Zm35.907 3.89c1.968 0 3.656-.703 5.062-2.109 1.406-1.437 2.11-3.156 2.11-5.156 0-1.969-.704-3.656-2.11-5.063-1.406-1.406-3.094-2.109-5.062-2.109-2.032 0-3.75.703-5.157 2.11-1.406 1.406-2.109 3.093-2.109 5.062 0 2 .703 3.719 2.11 5.156 1.406 1.407 3.124 2.11 5.156 2.11ZM49.796 78.11c2 0 3.704-.703 5.11-2.109 1.438-1.438 2.157-3.172 2.157-5.203s-.72-3.75-2.157-5.156c-1.406-1.438-3.11-2.157-5.11-2.157-2.062 0-3.812.72-5.25 2.157-1.405 1.406-2.108 3.125-2.108 5.156 0 2.031.703 3.766 2.109 5.203 1.437 1.406 3.187 2.11 5.25 2.11Zm-1.593 17.86c6.531 0 12.672-1.25 18.422-3.75 5.781-2.5 10.875-5.953 15.281-10.36 4.406-4.406 7.86-9.484 10.36-15.234 2.5-5.781 3.75-11.938 3.75-18.469 0-6.531-1.25-12.672-3.75-18.422-2.5-5.78-5.954-10.875-10.36-15.28-4.406-4.407-9.5-7.86-15.281-10.36-5.781-2.5-11.938-3.75-18.469-3.75-6.531 0-12.687 1.25-18.468 3.75a48.954 48.954 0 0 0-15.235 10.36c-4.375 4.405-7.812 9.5-10.312 15.28C1.64 35.484.39 41.625.39 48.156c0 6.532 1.25 12.688 3.75 18.469A48.954 48.954 0 0 0 14.5 81.859c4.406 4.407 9.484 7.86 15.234 10.36 5.782 2.5 11.938 3.75 18.47 3.75Zm0-6.375c-5.656 0-10.984-1.094-15.984-3.281-5-2.157-9.407-5.141-13.219-8.954-3.813-3.812-6.813-8.218-9-13.218-2.156-5-3.234-10.329-3.234-15.985 0-5.656 1.078-10.984 3.234-15.984 2.188-5 5.172-9.406 8.953-13.219 3.813-3.812 8.219-6.797 13.219-8.953 5-2.188 10.328-3.281 15.984-3.281 5.657 0 10.985 1.093 15.985 3.281 5 2.156 9.406 5.14 13.218 8.953a41.706 41.706 0 0 1 9 13.219c2.188 5 3.282 10.328 3.282 15.984 0 5.657-1.094 10.985-3.282 15.985-2.156 5-5.14 9.406-8.953 13.218-3.812 3.813-8.219 6.797-13.219 8.954-5 2.187-10.328 3.28-15.984 3.28Z" fill="currentColor"/>
  </symbol>

  <symbol id="figure.fall" viewBox="0 0 92 90">
    <path d="M19.375 23.922c1.875 0 3.578-.453 5.11-1.36a10.136 10.136 0 0 0 3.703-3.656c.937-1.562 1.406-3.297 1.406-5.203 0-1.875-.469-3.578-1.407-5.11a10.025 10.025 0 0 0-3.703-3.702c-1.53-.938-3.234-1.407-5.109-1.407s-3.594.47-5.156 1.407c-1.531.906-2.766 2.14-3.703 3.703-.907 1.531-1.36 3.234-1.36 5.11 0 1.905.453 3.64 1.36 5.202a10.635 10.635 0 0 0 3.703 3.657c1.562.906 3.281 1.359 5.156 1.359ZM1.094 43.609l2.718 16.782c.282 1.53.907 2.625 1.876 3.28.968.657 2.015.907 3.14.75a4.403 4.403 0 0 0 2.766-1.593c.75-.906 1-2.125.75-3.656l-2.39-14.484 9.515-3.704c1.625-.625 2.734-.297 3.328.985l8.765 17.343c1.313 2.594 2.532 4.438 3.657 5.532a31.642 31.642 0 0 0 3.281 2.812l28.266 20.766c1.25.906 2.484 1.219 3.703.937 1.219-.28 2.203-.906 2.953-1.875.75-.968 1.062-2.078.937-3.328-.093-1.25-.843-2.39-2.25-3.422L50.125 64.61c-.531-.406-.781-.906-.75-1.5.031-.593.344-1.062.938-1.406l14.953-8.625 19.593 9.375c1.407.656 2.672.75 3.797.281 1.156-.468 2-1.234 2.531-2.297.532-1.062.61-2.187.235-3.374-.375-1.188-1.39-2.172-3.047-2.954l-20.906-9.937c-1.281-.625-2.516-.86-3.703-.703a8.349 8.349 0 0 0-3.328 1.078l-9.844 5.766c-1.25.75-2.157.546-2.719-.61l-7.922-16.125c-.375-.75-.5-1.469-.375-2.156.156-.688.64-1.219 1.453-1.594l7.219-3.281c1.188-.563 2.047-1.11 2.578-1.64.563-.563 1.016-1.423 1.36-2.579l4.593-15.89c.407-1.5.313-2.735-.281-3.704-.594-.968-1.422-1.593-2.484-1.875-1.063-.312-2.11-.203-3.141.329-1.031.53-1.766 1.546-2.203 3.046l-4.453 15.563L4.28 37.375c-2.656 1.156-3.718 3.234-3.187 6.234Z" fill="currentColor"/>
  </symbol>

  <symbol id="ellipsis.curlybraces" viewBox="0 0 118 98">
    <path d="M.953 49.156c0 1.375.39 2.516 1.172 3.422.813.875 2.016 1.453 3.61 1.734 2.906.438 4.984 1.5 6.234 3.188 1.25 1.688 1.875 4.422 1.875 8.203v13.172c0 6.375 1.5 11.094 4.5 14.156 3 3.063 7.656 4.594 13.968 4.594.75 0 1.454-.11 2.11-.328.719-.313 1.266-.75 1.64-1.313.407-.562.61-1.234.61-2.015 0-1.719-.813-2.781-2.438-3.188l-.75-.187a5.345 5.345 0 0 0-.75-.047c-3.937-.281-6.718-1.375-8.343-3.281C22.797 85.39 22 82.28 22 77.937V62.376c0-3.969-1-7.047-3-9.234-2-2.188-4.828-3.453-8.484-3.797-.063 0-.094-.032-.094-.094 0-.063.031-.094.094-.094C14.172 48.813 17 47.546 19 45.36c2-2.187 3-5.265 3-9.234v-15.61c0-4.343.797-7.453 2.39-9.328 1.626-1.874 4.407-2.953 8.344-3.234.375-.031.72-.062 1.032-.094.312-.062.593-.14.843-.234 1.375-.469 2.063-1.516 2.063-3.14 0-.844-.219-1.532-.656-2.063-.407-.563-1-.985-1.782-1.266-.656-.218-1.453-.328-2.39-.328-6.125 0-10.657 1.547-13.594 4.64-2.938 3.095-4.406 7.798-4.406 14.11v13.219c0 3.75-.625 6.469-1.875 8.156-1.25 1.688-3.328 2.75-6.235 3.188-1.593.25-2.796.828-3.609 1.734-.781.875-1.172 1.969-1.172 3.281ZM38.22 56.61c2.031 0 3.781-.734 5.25-2.203 1.468-1.5 2.203-3.25 2.203-5.25A6.885 6.885 0 0 0 44.64 45.5a7.56 7.56 0 0 0-2.672-2.766c-1.125-.687-2.375-1.03-3.75-1.03a7.209 7.209 0 0 0-3.75 1.03A7.946 7.946 0 0 0 31.75 45.5a6.884 6.884 0 0 0-1.031 3.656c0 2 .734 3.75 2.203 5.25 1.5 1.469 3.266 2.203 5.297 2.203Zm21.093 0a6.967 6.967 0 0 0 3.704-1.03 8.08 8.08 0 0 0 2.718-2.72 7.126 7.126 0 0 0 1.032-3.703 6.884 6.884 0 0 0-1.032-3.656 7.946 7.946 0 0 0-2.718-2.766 6.967 6.967 0 0 0-3.703-1.03 7.126 7.126 0 0 0-3.704 1.03 7.946 7.946 0 0 0-2.718 2.766 6.884 6.884 0 0 0-1.032 3.656c0 2 .735 3.75 2.203 5.25 1.5 1.469 3.25 2.203 5.25 2.203Zm21.094 0c2.031 0 3.781-.734 5.25-2.203 1.5-1.5 2.25-3.25 2.25-5.25a6.884 6.884 0 0 0-1.031-3.656 7.946 7.946 0 0 0-2.719-2.766c-1.125-.687-2.375-1.03-3.75-1.03a7.21 7.21 0 0 0-3.75 1.03 7.946 7.946 0 0 0-2.719 2.766 7.13 7.13 0 0 0-.984 3.656c0 2 .734 3.75 2.203 5.25 1.469 1.469 3.219 2.203 5.25 2.203Zm37.266-7.453c0-1.312-.391-2.406-1.172-3.281-.781-.906-1.984-1.484-3.609-1.734-2.907-.438-4.985-1.5-6.235-3.188-1.25-1.687-1.875-4.406-1.875-8.156V19.578c0-6.312-1.469-11.015-4.406-14.11-2.938-3.093-7.469-4.64-13.594-4.64-.906 0-1.687.11-2.344.328-.812.282-1.437.703-1.874 1.266-.407.531-.61 1.219-.61 2.062 0 1.625.703 2.672 2.11 3.141.218.094.484.172.796.234.313.032.657.063 1.032.094 3.937.281 6.718 1.36 8.343 3.234 1.625 1.876 2.438 4.985 2.438 9.329v15.609c0 3.969.984 7.047 2.953 9.234 2 2.188 4.828 3.453 8.484 3.797.063 0 .094.032.094.094 0 .063-.031.094-.094.094-3.656.343-6.484 1.61-8.484 3.797-1.969 2.187-2.953 5.265-2.953 9.234v15.563c0 4.343-.813 7.453-2.438 9.328-1.625 1.906-4.406 3-8.343 3.28-.282 0-.547.016-.797.048l-.656.187c-1.657.406-2.485 1.469-2.485 3.188 0 .781.188 1.453.563 2.015.406.563.984 1 1.734 1.313a6.208 6.208 0 0 0 2.063.328c6.343 0 11-1.531 13.968-4.594 3-3.062 4.5-7.781 4.5-14.156V65.703c0-3.781.625-6.516 1.875-8.203 1.25-1.688 3.328-2.75 6.235-3.188 1.625-.28 2.828-.859 3.609-1.734.781-.906 1.172-2.047 1.172-3.422Z" fill="currentColor"/>
  </symbol>

  <symbol id="hand.thumbsup" viewBox="0 0 96 103">
    <path d="M0.390625 69.8906C0.390625 73.6719 0.953125 77.25 2.07812 80.625C3.23438 83.9688 4.8125 86.9219 6.8125 89.4844C8.84375 92.0781 11.1719 94.1094 13.7969 95.5781C16.4219 97.0469 19.2344 97.7812 22.2344 97.7812H37.1875C40.1562 99.3438 43.4219 100.562 46.9844 101.438C50.5781 102.312 54.3906 102.75 58.4219 102.75H64.7031C67.5156 102.75 70.0938 102.656 72.4375 102.469C74.8125 102.312 76.8125 102.031 78.4375 101.625C81.5938 100.875 84.0781 99.4688 85.8906 97.4062C87.7344 95.3438 88.6562 92.9375 88.6562 90.1875C88.6562 89.625 88.6094 89.0781 88.5156 88.5469C88.4531 88.0156 88.3438 87.4844 88.1875 86.9531C91.4062 84.5156 93.0156 81.3438 93.0156 77.4375C93.0156 75.5312 92.6719 73.8281 91.9844 72.3281C93.0469 71.2344 93.8594 69.9531 94.4219 68.4844C94.9844 66.9844 95.2656 65.4062 95.2656 63.75C95.2656 62.6875 95.1406 61.625 94.8906 60.5625C94.6406 59.5 94.2969 58.5625 93.8594 57.75C95.2031 55.7812 95.875 53.4062 95.875 50.625C95.875 48.375 95.3281 46.3438 94.2344 44.5312C93.1719 42.6875 91.7344 41.2344 89.9219 40.1719C88.1094 39.0781 86.0781 38.5312 83.8281 38.5312H66.7188C66.2188 38.5312 65.8125 38.4219 65.5 38.2031C65.1875 37.9531 65.0312 37.6094 65.0312 37.1719C65.0312 35.9531 65.4062 34.375 66.1562 32.4375C66.9375 30.5 67.8281 28.3594 68.8281 26.0156C69.8594 23.6719 70.7656 21.2656 71.5469 18.7969C72.3281 16.3281 72.7188 13.9531 72.7188 11.6719C72.7188 9.54688 72.2656 7.67188 71.3594 6.04688C70.4531 4.42187 69.2188 3.15625 67.6562 2.25C66.0938 1.3125 64.2969 0.84375 62.2656 0.84375C60.0469 0.84375 58.125 1.46875 56.5 2.71875C54.875 3.9375 53.3281 5.95312 51.8594 8.76562C50.4844 11.3906 49.0312 13.9844 47.5 16.5469C45.9688 19.1094 44.2812 21.7187 42.4375 24.375C40.625 27 38.625 29.75 36.4375 32.625C34.25 35.4688 31.8125 38.5312 29.125 41.8125H20.5469C16.8281 41.8125 13.4375 43.0781 10.375 45.6094C7.34375 48.1406 4.92188 51.5312 3.10938 55.7812C1.29688 60.0312 0.390625 64.7344 0.390625 69.8906ZM26.7812 69.6562C26.7812 66.375 27.0469 63.4219 27.5781 60.7969C28.1094 58.1719 28.9844 55.6406 30.2031 53.2031C31.4219 50.7656 33.0469 48.1719 35.0781 45.4219C37.3594 42.3906 39.8438 39.1562 42.5312 35.7188C45.25 32.25 47.9531 28.5469 50.6406 24.6094C53.3594 20.6719 55.8438 16.4531 58.0938 11.9531C58.9375 10.2344 59.6719 9.10937 60.2969 8.57812C60.9531 8.04688 61.7031 7.78125 62.5469 7.78125C63.4844 7.78125 64.25 8.125 64.8438 8.8125C65.4688 9.46875 65.7812 10.4219 65.7812 11.6719C65.7812 13.4844 65.3906 15.5 64.6094 17.7188C63.8281 19.9375 62.9219 22.2031 61.8906 24.5156C60.8906 26.8281 60 29.0781 59.2188 31.2656C58.4688 33.4219 58.0938 35.3906 58.0938 37.1719C58.0938 39.7344 59.0156 41.7656 60.8594 43.2656C62.7344 44.7344 65.0156 45.4688 67.7031 45.4688H83.8281C85.2656 45.4688 86.4688 45.9688 87.4375 46.9688C88.4375 47.9375 88.9375 49.1562 88.9375 50.625C88.9375 51.7188 88.75 52.6562 88.375 53.4375C88 54.2188 87.375 55.0469 86.5 55.9219C86.0625 56.2969 85.8281 56.7188 85.7969 57.1875C85.7656 57.625 85.9219 58.0625 86.2656 58.5C86.9844 59.5625 87.5 60.4844 87.8125 61.2656C88.1562 62.0156 88.3281 62.8438 88.3281 63.75C88.3281 64.8125 88.0781 65.7969 87.5781 66.7031C87.0781 67.6094 86.3125 68.4531 85.2812 69.2344C84.7188 69.6719 84.3438 70.1875 84.1562 70.7812C83.9688 71.3438 84.0312 71.9844 84.3438 72.7031C84.9375 73.7656 85.375 74.625 85.6562 75.2812C85.9375 75.9062 86.0781 76.625 86.0781 77.4375C86.0781 79.7188 84.4688 81.6875 81.25 83.3438C80.75 83.6562 80.4219 84.0156 80.2656 84.4219C80.1406 84.8281 80.1875 85.2812 80.4062 85.7812C80.9688 87.1875 81.3125 88.125 81.4375 88.5938C81.5938 89.0625 81.6719 89.5938 81.6719 90.1875C81.6719 91.2812 81.2656 92.2344 80.4531 93.0469C79.6719 93.8594 78.4531 94.4844 76.7969 94.9219C75.4844 95.2656 73.7812 95.5 71.6875 95.625C69.625 95.7812 67.3125 95.8594 64.75 95.8594H58.9375C52.5 95.8594 46.8594 94.7344 42.0156 92.4844C37.2031 90.2344 33.4531 87.1406 30.7656 83.2031C28.1094 79.2344 26.7812 74.7188 26.7812 69.6562ZM7.32812 69.8906C7.32812 65.9844 7.9375 62.4375 9.15625 59.25C10.4062 56.0625 12.0312 53.5156 14.0312 51.6094C16.0625 49.7031 18.2344 48.75 20.5469 48.75C21.2031 48.75 21.875 48.75 22.5625 48.75C23.25 48.75 23.9375 48.75 24.625 48.75C22.9688 51.9062 21.75 55.1719 20.9688 58.5469C20.2188 61.8906 19.8438 65.5469 19.8438 69.5156C19.8438 73.7031 20.5625 77.5938 22 81.1875C23.4688 84.7812 25.5469 87.9844 28.2344 90.7969C27.2344 90.7969 26.2344 90.7969 25.2344 90.7969C24.2344 90.7969 23.2344 90.7969 22.2344 90.7969C19.5781 90.7969 17.125 89.8438 14.875 87.9375C12.625 86.0312 10.7969 83.5 9.39062 80.3438C8.01562 77.1562 7.32812 73.6719 7.32812 69.8906Z" fill="currentColor"/>
  </symbol>
</svg>